<svg xmlns="http://www.w3.org/2000/svg" id="canvas" viewBox="250.573 412.937 1039.009 113.595">
    <path d="M 283.28,416.13 C 282.50 416.49, 282.21 417.04, 281.45 418.37 C 280.70 419.71, 280.27 420.54, 279.52 422.80 C 278.78 425.05, 278.54 426.61, 277.72 429.65 C 276.91 432.69, 276.52 434.52, 275.44 437.99 C 274.36 441.46, 273.61 443.38, 272.31 447.01 C 271.00 450.64, 270.23 452.62, 268.91 456.15 C 267.58 459.69, 266.88 461.48, 265.67 464.68 C 264.46 467.88, 263.74 469.40, 262.85 472.14 C 261.96 474.88, 261.68 476.17, 261.23 478.36 C 260.77 480.55, 260.63 481.52, 260.57 483.08 C 260.51 484.64, 260.65 485.24, 260.93 486.15 C 261.22 487.06, 261.46 487.27, 261.99 487.65 C 262.52 488.02, 263.12 488.06, 263.60 488.03 C 264.08 487.99, 264.57 487.80, 264.40 487.48 C 264.22 487.16, 262.99 486.59, 262.71 486.43 C 262.42 486.28, 262.73 486.65, 262.99 486.71 C 263.25 486.78, 263.69 486.94, 264.00 486.78 C 264.30 486.62, 264.31 486.55, 264.50 485.92 C 264.68 485.29, 264.63 484.91, 264.93 483.63 C 265.23 482.35, 265.42 481.52, 265.99 479.53 C 266.56 477.54, 266.99 476.35, 267.79 473.68 C 268.59 471.01, 268.94 469.39, 269.97 466.18 C 271.01 462.98, 271.66 461.18, 272.95 457.65 C 274.23 454.12, 275.00 452.15, 276.41 448.55 C 277.81 444.94, 278.61 443.04, 279.99 439.62 C 281.37 436.20, 282.17 434.48, 283.31 431.46 C 284.46 428.44, 285.15 426.93, 285.71 424.54 C 286.27 422.14, 286.19 421.07, 286.13 419.47 C 286.06 417.88, 285.96 417.25, 285.39 416.58 C 284.82 415.91, 284.07 415.77, 283.28 416.13"
          fill="currentColor"/>
    <path d="M 253.86,458.28 C 254.19 458.93, 254.48 459.12, 255.36 459.50 C 256.24 459.88, 256.80 460.06, 258.27 460.18 C 259.74 460.30, 260.69 460.18, 262.69 460.08 C 264.70 459.98, 265.90 459.84, 268.28 459.68 C 270.67 459.51, 272.04 459.38, 274.61 459.23 C 277.19 459.08, 278.58 459.04, 281.16 458.92 C 283.73 458.80, 285.23 458.84, 287.49 458.63 C 289.76 458.43, 290.85 458.29, 292.48 457.90 C 294.11 457.51, 294.99 457.30, 295.63 456.70 C 296.26 456.11, 296.28 455.53, 295.66 454.91 C 295.03 454.29, 294.16 454.02, 292.51 453.61 C 290.86 453.20, 289.72 453.01, 287.41 452.87 C 285.10 452.74, 283.57 452.88, 280.96 452.93 C 278.35 452.99, 276.94 453.08, 274.35 453.15 C 271.76 453.22, 270.40 453.24, 268.01 453.28 C 265.61 453.32, 264.40 453.26, 262.37 453.35 C 260.35 453.43, 259.35 453.43, 257.88 453.73 C 256.41 454.03, 255.85 454.32, 255.02 454.83 C 254.19 455.33, 253.95 455.55, 253.72 456.24 C 253.48 456.93, 253.54 457.63, 253.86 458.28"
          fill="currentColor"/>
    <path d="M 301.92,468.44 C 302.33 469.09, 302.71 469.34, 303.81 469.62 C 304.92 469.90, 305.70 470.05, 307.42 469.84 C 309.14 469.63, 310.30 469.28, 312.40 468.56 C 314.50 467.85, 315.72 467.26, 317.92 466.25 C 320.12 465.25, 321.35 464.65, 323.42 463.52 C 325.50 462.38, 326.60 461.80, 328.29 460.59 C 329.99 459.38, 330.80 458.77, 331.90 457.47 C 332.99 456.18, 333.46 455.50, 333.76 454.10 C 334.06 452.70, 334.05 451.77, 333.38 450.48 C 332.72 449.18, 332.03 448.37, 330.44 447.62 C 328.86 446.88, 327.72 446.68, 325.44 446.74 C 323.16 446.80, 321.74 447.02, 319.06 447.92 C 316.37 448.81, 314.83 449.64, 311.99 451.23 C 309.16 452.81, 307.59 453.90, 304.88 455.85 C 302.17 457.79, 300.64 458.82, 298.44 460.95 C 296.25 463.08, 295.24 464.29, 293.89 466.49 C 292.55 468.68, 292.07 469.83, 291.73 471.92 C 291.38 474.00, 291.46 475.09, 292.15 476.90 C 292.85 478.72, 293.53 479.64, 295.18 480.99 C 296.83 482.34, 297.98 482.90, 300.41 483.65 C 302.84 484.40, 304.37 484.62, 307.34 484.75 C 310.31 484.89, 312.27 484.69, 315.25 484.31 C 318.24 483.93, 319.95 483.62, 322.27 482.87 C 324.60 482.11, 326.04 481.41, 326.89 480.54 C 327.74 479.66, 327.59 479.03, 326.53 478.49 C 325.46 477.95, 323.92 477.93, 321.57 477.84 C 319.21 477.74, 317.57 477.93, 314.75 478.01 C 311.94 478.09, 310.11 478.25, 307.51 478.24 C 304.91 478.22, 303.68 478.19, 301.75 477.92 C 299.83 477.65, 299.07 477.40, 297.90 476.88 C 296.74 476.37, 296.32 476.13, 295.92 475.34 C 295.53 474.55, 295.52 474.11, 295.95 472.92 C 296.38 471.73, 296.82 470.96, 298.08 469.38 C 299.35 467.80, 300.28 466.83, 302.27 465.01 C 304.26 463.19, 305.53 462.02, 308.02 460.30 C 310.50 458.59, 312.10 457.67, 314.70 456.43 C 317.30 455.19, 318.77 454.78, 321.03 454.10 C 323.29 453.41, 324.39 453.30, 326.01 453.00 C 327.64 452.70, 328.28 452.71, 329.17 452.60 C 330.06 452.49, 330.24 452.41, 330.47 452.44 C 330.70 452.46, 330.67 452.44, 330.30 452.74 C 329.93 453.04, 329.61 453.31, 328.62 453.95 C 327.63 454.58, 326.93 455.08, 325.36 455.92 C 323.79 456.77, 322.74 457.28, 320.76 458.16 C 318.79 459.04, 317.57 459.55, 315.46 460.32 C 313.35 461.10, 312.15 461.42, 310.23 462.05 C 308.30 462.67, 307.25 462.88, 305.82 463.46 C 304.39 464.04, 303.89 464.36, 303.08 464.95 C 302.27 465.53, 301.99 465.67, 301.76 466.37 C 301.53 467.07, 301.51 467.79, 301.92 468.44"
          fill="currentColor"/>
    <path d="M 373.60,451.91 C 373.50 451.13, 373.17 450.67, 372.33 450.11 C 371.48 449.56, 370.81 449.25, 369.37 449.13 C 367.93 449.00, 366.93 449.06, 365.12 449.49 C 363.31 449.93, 362.32 450.36, 360.32 451.30 C 358.32 452.24, 357.19 452.83, 355.10 454.20 C 353.01 455.57, 351.83 456.43, 349.86 458.16 C 347.89 459.88, 346.85 460.91, 345.26 462.84 C 343.67 464.76, 342.85 465.82, 341.90 467.79 C 340.95 469.76, 340.59 470.82, 340.50 472.70 C 340.41 474.57, 340.59 475.58, 341.45 477.16 C 342.32 478.74, 343.06 479.57, 344.83 480.60 C 346.60 481.62, 347.83 481.98, 350.31 482.29 C 352.79 482.61, 354.28 482.58, 357.23 482.18 C 360.18 481.78, 361.86 481.21, 365.06 480.29 C 368.26 479.38, 370.04 478.81, 373.23 477.61 C 376.41 476.40, 378.07 475.68, 380.99 474.26 C 383.91 472.83, 385.40 472.11, 387.84 470.48 C 390.28 468.85, 391.34 467.89, 393.18 466.11 C 395.03 464.33, 395.73 463.40, 397.06 461.60 C 398.38 459.80, 398.90 458.93, 399.80 457.11 C 400.71 455.29, 401.01 454.34, 401.59 452.49 C 402.16 450.65, 402.30 449.72, 402.67 447.90 C 403.03 446.08, 403.15 445.18, 403.42 443.40 C 403.69 441.61, 403.77 440.68, 404.02 438.98 C 404.27 437.29, 404.39 436.46, 404.68 434.94 C 404.96 433.43, 405.16 432.70, 405.43 431.40 C 405.70 430.10, 405.96 429.48, 406.04 428.45 C 406.12 427.42, 406.26 426.97, 405.85 426.24 C 405.43 425.51, 404.86 424.98, 403.95 424.79 C 403.04 424.60, 402.26 424.60, 401.31 425.30 C 400.35 426.01, 400.01 426.70, 399.16 428.31 C 398.31 429.92, 397.97 431.05, 397.05 433.33 C 396.13 435.62, 395.63 437.09, 394.56 439.73 C 393.49 442.36, 392.90 443.84, 391.72 446.49 C 390.53 449.14, 389.81 450.47, 388.65 452.98 C 387.48 455.49, 386.90 456.77, 385.90 459.03 C 384.91 461.29, 384.41 462.40, 383.69 464.27 C 382.97 466.13, 382.54 466.95, 382.31 468.37 C 382.07 469.78, 382.06 470.41, 382.53 471.33 C 383.00 472.26, 383.61 472.71, 384.65 472.98 C 385.69 473.25, 386.48 473.22, 387.72 472.69 C 388.96 472.16, 389.54 471.56, 390.85 470.34 C 392.16 469.12, 392.76 468.14, 394.27 466.58 C 395.78 465.02, 396.66 464.08, 398.42 462.55 C 400.18 461.03, 401.22 460.22, 403.06 458.96 C 404.91 457.70, 405.95 457.11, 407.64 456.25 C 409.34 455.38, 410.22 455.07, 411.54 454.62 C 412.86 454.18, 413.45 454.08, 414.25 454.04 C 415.05 453.99, 415.27 454.05, 415.54 454.39 C 415.82 454.73, 415.75 454.95, 415.63 455.73 C 415.51 456.51, 415.31 457.04, 414.93 458.29 C 414.54 459.54, 414.26 460.39, 413.71 461.98 C 413.16 463.57, 412.76 464.54, 412.17 466.24 C 411.58 467.94, 411.14 468.89, 410.76 470.49 C 410.38 472.09, 410.21 472.95, 410.28 474.25 C 410.36 475.55, 410.58 476.40, 411.14 476.99 C 411.70 477.58, 412.41 477.57, 413.08 477.21 C 413.75 476.86, 413.90 476.17, 414.49 475.21 C 415.08 474.24, 415.35 473.74, 416.04 472.40 C 416.72 471.06, 417.17 470.20, 417.92 468.52 C 418.67 466.85, 419.20 465.86, 419.80 464.02 C 420.39 462.17, 420.76 461.13, 420.90 459.31 C 421.04 457.49, 421.01 456.48, 420.49 454.92 C 419.98 453.36, 419.48 452.54, 418.34 451.51 C 417.20 450.47, 416.38 450.09, 414.79 449.75 C 413.21 449.40, 412.29 449.47, 410.41 449.77 C 408.53 450.07, 407.50 450.40, 405.39 451.24 C 403.29 452.08, 402.09 452.68, 399.91 453.97 C 397.72 455.25, 396.53 456.11, 394.48 457.67 C 392.42 459.22, 391.38 460.17, 389.63 461.72 C 387.88 463.28, 386.92 464.06, 385.73 465.45 C 384.54 466.85, 384.06 467.59, 383.68 468.70 C 383.30 469.81, 383.54 470.43, 383.84 471.00 C 384.13 471.58, 384.61 471.78, 385.18 471.57 C 385.75 471.36, 386.03 471.01, 386.69 469.96 C 387.35 468.91, 387.65 468.07, 388.48 466.34 C 389.32 464.61, 389.82 463.50, 390.87 461.32 C 391.93 459.14, 392.55 457.89, 393.76 455.42 C 394.98 452.95, 395.62 451.58, 396.93 448.96 C 398.24 446.35, 399.02 444.92, 400.33 442.35 C 401.63 439.78, 402.38 438.38, 403.44 436.10 C 404.50 433.81, 405.08 432.71, 405.60 430.94 C 406.13 429.16, 406.30 428.33, 406.08 427.20 C 405.85 426.08, 405.22 425.64, 404.47 425.29 C 403.72 424.94, 402.98 425.07, 402.32 425.45 C 401.65 425.83, 401.54 426.27, 401.13 427.20 C 400.71 428.13, 400.62 428.80, 400.24 430.12 C 399.87 431.44, 399.62 432.22, 399.26 433.82 C 398.89 435.42, 398.70 436.37, 398.42 438.13 C 398.15 439.89, 398.10 440.87, 397.88 442.63 C 397.65 444.39, 397.58 445.25, 397.32 446.94 C 397.05 448.63, 396.95 449.46, 396.55 451.07 C 396.15 452.67, 396.00 453.44, 395.31 454.96 C 394.62 456.48, 394.22 457.17, 393.10 458.66 C 391.98 460.14, 391.36 460.91, 389.71 462.38 C 388.07 463.85, 387.06 464.54, 384.86 466.01 C 382.66 467.47, 381.40 468.34, 378.72 469.70 C 376.05 471.06, 374.47 471.76, 371.48 472.81 C 368.48 473.86, 366.74 474.34, 363.74 474.95 C 360.74 475.57, 359.08 475.61, 356.48 475.87 C 353.87 476.14, 352.64 476.26, 350.71 476.28 C 348.78 476.30, 347.99 476.21, 346.84 475.97 C 345.69 475.73, 345.35 475.61, 344.95 475.07 C 344.55 474.54, 344.56 474.23, 344.86 473.30 C 345.16 472.37, 345.50 471.73, 346.45 470.41 C 347.40 469.09, 348.13 468.23, 349.60 466.71 C 351.08 465.19, 352.05 464.28, 353.83 462.83 C 355.61 461.37, 356.68 460.61, 358.50 459.43 C 360.33 458.26, 361.34 457.72, 362.97 456.96 C 364.60 456.21, 365.35 455.98, 366.65 455.65 C 367.95 455.31, 368.52 455.43, 369.47 455.27 C 370.41 455.11, 370.69 455.09, 371.36 454.84 C 372.04 454.59, 372.38 454.62, 372.83 454.04 C 373.28 453.45, 373.70 452.70, 373.60 451.91"
          fill="currentColor"/>
    <path d="M 510.27,454.14 C 509.55 454.32, 509.38 454.59, 508.74 455.35 C 508.10 456.10, 507.74 456.57, 507.06 457.91 C 506.38 459.26, 506.05 460.27, 505.33 462.09 C 504.61 463.92, 504.26 465.07, 503.48 467.03 C 502.69 468.98, 502.17 470.05, 501.38 471.88 C 500.60 473.72, 500.13 474.67, 499.57 476.19 C 499.01 477.71, 498.73 478.41, 498.58 479.48 C 498.42 480.55, 498.63 480.97, 498.79 481.56 C 498.95 482.15, 499.11 482.19, 499.38 482.42 C 499.66 482.65, 499.81 482.69, 500.16 482.71 C 500.52 482.72, 500.63 482.79, 501.14 482.50 C 501.66 482.22, 502.08 482.08, 502.73 481.28 C 503.39 480.47, 503.64 479.83, 504.43 478.47 C 505.22 477.11, 505.71 476.23, 506.68 474.48 C 507.66 472.72, 508.28 471.66, 509.29 469.70 C 510.30 467.74, 510.93 466.62, 511.73 464.69 C 512.54 462.75, 512.99 461.68, 513.32 460.03 C 513.65 458.39, 513.58 457.57, 513.39 456.46 C 513.19 455.34, 512.97 454.91, 512.34 454.45 C 511.72 453.99, 510.99 453.96, 510.27 454.14"
          fill="currentColor"/>
    <path d="M 522.04,427.50 C 522.77 427.11, 523.13 426.88, 523.04 426.80 C 522.96 426.72, 522.38 426.91, 521.62 427.12 C 520.87 427.32, 520.00 427.49, 519.28 427.82 C 518.57 428.15, 518.03 428.57, 518.05 428.76 C 518.07 428.95, 518.59 429.02, 519.39 428.77 C 520.19 428.51, 521.31 427.90, 522.04 427.50"
          fill="currentColor"/>
    <path d="M 537.19,450.84 C 536.46 451.00, 536.24 451.28, 535.63 452.02 C 535.01 452.76, 534.68 453.21, 534.12 454.52 C 533.56 455.83, 533.33 456.78, 532.83 458.56 C 532.32 460.33, 532.11 461.42, 531.60 463.39 C 531.09 465.37, 530.75 466.46, 530.29 468.44 C 529.82 470.41, 529.53 471.44, 529.26 473.25 C 529.00 475.07, 528.85 475.97, 528.97 477.49 C 529.09 479.01, 529.19 479.74, 529.86 480.86 C 530.53 481.97, 531.13 482.56, 532.33 483.06 C 533.52 483.56, 534.38 483.67, 535.85 483.36 C 537.32 483.06, 538.07 482.63, 539.66 481.52 C 541.25 480.40, 542.07 479.57, 543.81 477.80 C 545.55 476.02, 546.47 474.83, 548.35 472.65 C 550.24 470.47, 551.25 469.13, 553.24 466.88 C 555.22 464.64, 556.44 463.49, 558.27 461.42 C 560.10 459.35, 560.96 458.23, 562.39 456.52 C 563.82 454.82, 564.46 454.06, 565.41 452.87 C 566.36 451.69, 566.72 451.33, 567.13 450.59 C 567.55 449.85, 567.43 449.57, 567.49 449.17 C 567.54 448.76, 567.47 448.83, 567.41 448.57 C 567.35 448.30, 567.42 448.07, 567.20 447.86 C 566.98 447.64, 566.83 447.50, 566.32 447.50 C 565.80 447.50, 565.46 447.43, 564.61 447.85 C 563.77 448.27, 563.32 448.58, 562.09 449.59 C 560.87 450.60, 560.10 451.31, 558.48 452.89 C 556.85 454.48, 555.88 455.48, 553.98 457.50 C 552.07 459.51, 551.02 460.79, 548.96 462.96 C 546.89 465.14, 545.64 466.32, 543.66 468.36 C 541.68 470.40, 540.68 471.49, 539.06 473.16 C 537.44 474.83, 536.64 475.55, 535.57 476.71 C 534.49 477.86, 534.12 478.30, 533.67 478.95 C 533.21 479.59, 533.31 479.80, 533.28 479.92 C 533.24 480.05, 533.35 480.02, 533.47 479.58 C 533.60 479.15, 533.65 478.78, 533.90 477.74 C 534.15 476.69, 534.29 475.90, 534.70 474.36 C 535.12 472.82, 535.39 471.86, 535.98 470.04 C 536.58 468.22, 537.01 467.17, 537.69 465.26 C 538.37 463.35, 538.85 462.30, 539.40 460.48 C 539.95 458.67, 540.26 457.67, 540.43 456.19 C 540.61 454.70, 540.51 454.05, 540.29 453.06 C 540.06 452.07, 539.91 451.67, 539.29 451.23 C 538.67 450.79, 537.92 450.68, 537.19 450.84"
          fill="currentColor"/>
    <path d="M 576.34,468.74 C 576.90 469.26, 577.28 469.33, 578.30 469.39 C 579.31 469.45, 579.98 469.43, 581.43 469.04 C 582.88 468.65, 583.78 468.23, 585.54 467.45 C 587.30 466.67, 588.35 466.13, 590.21 465.12 C 592.07 464.11, 593.12 463.51, 594.84 462.41 C 596.56 461.30, 597.46 460.76, 598.81 459.59 C 600.16 458.41, 600.84 457.83, 601.60 456.54 C 602.36 455.26, 602.67 454.51, 602.62 453.16 C 602.56 451.81, 602.29 450.89, 601.31 449.82 C 600.33 448.74, 599.49 448.16, 597.73 447.77 C 595.96 447.38, 594.79 447.42, 592.50 447.85 C 590.21 448.29, 588.83 448.79, 586.28 449.93 C 583.72 451.07, 582.27 451.92, 579.72 453.57 C 577.16 455.21, 575.72 456.20, 573.50 458.15 C 571.29 460.10, 570.19 461.24, 568.63 463.32 C 567.08 465.40, 566.41 466.49, 565.73 468.54 C 565.05 470.60, 564.91 471.71, 565.23 473.62 C 565.55 475.53, 566.03 476.54, 567.34 478.10 C 568.64 479.66, 569.58 480.38, 571.74 481.40 C 573.90 482.42, 575.30 482.78, 578.13 483.20 C 580.96 483.62, 582.63 483.52, 585.89 483.49 C 589.15 483.46, 591.23 483.32, 594.43 483.03 C 597.62 482.75, 599.41 482.66, 601.87 482.05 C 604.33 481.44, 605.81 480.79, 606.73 479.98 C 607.66 479.16, 607.55 478.54, 606.48 477.98 C 605.41 477.43, 603.87 477.31, 601.39 477.18 C 598.91 477.06, 597.17 477.25, 594.07 477.36 C 590.98 477.46, 588.93 477.76, 585.91 477.70 C 582.89 477.64, 581.42 477.38, 578.99 477.06 C 576.56 476.75, 575.43 476.58, 573.76 476.14 C 572.08 475.69, 571.50 475.45, 570.62 474.82 C 569.73 474.19, 569.46 473.87, 569.34 472.97 C 569.22 472.07, 569.33 471.56, 570.02 470.33 C 570.71 469.09, 571.32 468.31, 572.78 466.80 C 574.24 465.28, 575.28 464.33, 577.32 462.74 C 579.36 461.15, 580.66 460.21, 582.97 458.85 C 585.29 457.49, 586.70 456.89, 588.91 455.95 C 591.11 455.02, 592.30 454.70, 594.00 454.18 C 595.71 453.66, 596.43 453.60, 597.43 453.36 C 598.43 453.11, 598.65 453.05, 599.00 452.95 C 599.35 452.85, 599.37 452.73, 599.18 452.86 C 599.00 452.99, 598.80 453.12, 598.08 453.59 C 597.36 454.07, 596.84 454.50, 595.60 455.23 C 594.36 455.97, 593.52 456.44, 591.88 457.26 C 590.24 458.09, 589.21 458.58, 587.40 459.37 C 585.58 460.16, 584.50 460.49, 582.81 461.22 C 581.12 461.94, 580.21 462.26, 578.93 463.00 C 577.66 463.73, 577.14 464.14, 576.45 464.90 C 575.77 465.66, 575.53 466.02, 575.51 466.79 C 575.48 467.56, 575.78 468.22, 576.34 468.74"
          fill="currentColor"/>
    <path d="M 693.77,450.40 C 692.97 450.38, 692.55 450.62, 691.62 451.36 C 690.68 452.10, 690.08 452.68, 689.10 454.11 C 688.11 455.54, 687.58 456.58, 686.69 458.50 C 685.81 460.42, 685.38 461.65, 684.65 463.71 C 683.93 465.77, 683.55 466.85, 683.06 468.81 C 682.58 470.78, 682.31 471.74, 682.22 473.53 C 682.14 475.32, 682.15 476.22, 682.64 477.75 C 683.14 479.27, 683.58 480.06, 684.69 481.16 C 685.81 482.27, 686.59 482.77, 688.23 483.26 C 689.86 483.76, 690.88 483.85, 692.88 483.65 C 694.88 483.46, 695.99 483.14, 698.24 482.29 C 700.49 481.44, 701.73 480.83, 704.13 479.39 C 706.53 477.96, 707.84 477.01, 710.23 475.13 C 712.63 473.24, 713.84 472.09, 716.10 469.96 C 718.36 467.83, 719.55 466.67, 721.52 464.48 C 723.49 462.29, 724.46 461.08, 725.96 459.02 C 727.46 456.97, 728.16 455.93, 729.04 454.20 C 729.92 452.47, 730.33 451.66, 730.37 450.39 C 730.42 449.12, 730.09 448.40, 729.27 447.86 C 728.45 447.33, 727.53 447.20, 726.27 447.71 C 725.00 448.23, 724.21 448.90, 722.96 450.44 C 721.72 451.98, 721.13 453.23, 720.05 455.42 C 718.97 457.62, 718.46 459.07, 717.56 461.41 C 716.66 463.74, 716.17 464.95, 715.54 467.09 C 714.92 469.23, 714.63 470.27, 714.43 472.12 C 714.22 473.97, 714.22 474.82, 714.53 476.32 C 714.85 477.82, 715.15 478.75, 716.01 479.61 C 716.87 480.48, 718.00 480.83, 718.81 480.66 C 719.63 480.50, 720.03 479.46, 720.09 478.78 C 720.16 478.10, 719.37 477.86, 719.13 477.27 C 718.88 476.67, 718.83 476.65, 718.87 475.80 C 718.90 474.95, 718.91 474.37, 719.29 473.01 C 719.68 471.66, 719.99 470.80, 720.81 469.02 C 721.62 467.23, 722.23 466.14, 723.36 464.09 C 724.48 462.04, 725.31 460.78, 726.43 458.77 C 727.56 456.76, 728.30 455.72, 728.98 454.04 C 729.66 452.35, 729.89 451.49, 729.85 450.36 C 729.80 449.22, 729.36 448.67, 728.76 448.36 C 728.17 448.06, 727.69 448.20, 726.88 448.83 C 726.08 449.46, 725.80 450.14, 724.74 451.51 C 723.68 452.88, 723.09 453.85, 721.61 455.68 C 720.12 457.52, 719.19 458.65, 717.34 460.69 C 715.48 462.73, 714.45 463.95, 712.32 465.90 C 710.20 467.85, 708.97 468.81, 706.70 470.44 C 704.43 472.06, 703.14 472.79, 700.99 474.01 C 698.83 475.24, 697.75 475.80, 695.95 476.58 C 694.14 477.35, 693.31 477.56, 691.96 477.91 C 690.60 478.25, 690.05 478.29, 689.19 478.30 C 688.32 478.31, 688.06 478.30, 687.62 477.97 C 687.18 477.64, 687.05 477.43, 686.97 476.66 C 686.90 475.90, 686.94 475.39, 687.23 474.16 C 687.53 472.93, 687.81 472.12, 688.45 470.51 C 689.09 468.90, 689.55 467.91, 690.43 466.10 C 691.31 464.29, 691.94 463.25, 692.84 461.48 C 693.73 459.71, 694.30 458.80, 694.92 457.26 C 695.54 455.73, 695.79 454.97, 695.93 453.81 C 696.08 452.64, 696.07 452.13, 695.64 451.45 C 695.21 450.77, 694.58 450.42, 693.77 450.40"
          fill="currentColor"/>
    <path d="M 770.98,449.14 C 771.09 448.36, 770.88 447.79, 770.15 447.07 C 769.43 446.35, 768.79 445.90, 767.36 445.53 C 765.94 445.16, 764.91 445.03, 763.03 445.21 C 761.16 445.40, 760.06 445.78, 758.00 446.45 C 755.94 447.12, 754.75 447.57, 752.74 448.57 C 750.72 449.58, 749.59 450.21, 747.91 451.47 C 746.23 452.74, 745.41 453.45, 744.33 454.89 C 743.25 456.32, 742.83 457.12, 742.52 458.66 C 742.20 460.20, 742.28 461.09, 742.76 462.58 C 743.24 464.08, 743.78 464.86, 744.94 466.13 C 746.10 467.39, 746.98 467.93, 748.57 468.90 C 750.17 469.88, 751.21 470.23, 752.91 470.98 C 754.62 471.74, 755.60 472.09, 757.11 472.70 C 758.62 473.31, 759.40 473.64, 760.45 474.02 C 761.50 474.40, 761.93 474.50, 762.35 474.59 C 762.78 474.69, 762.82 474.53, 762.57 474.50 C 762.32 474.48, 762.00 474.35, 761.10 474.48 C 760.21 474.61, 759.53 474.78, 758.08 475.17 C 756.64 475.57, 755.67 475.95, 753.87 476.46 C 752.06 476.96, 750.98 477.27, 749.07 477.68 C 747.15 478.09, 746.04 478.17, 744.29 478.51 C 742.53 478.84, 741.67 478.98, 740.30 479.36 C 738.93 479.74, 738.05 479.80, 737.45 480.40 C 736.85 481.01, 736.72 481.68, 737.28 482.38 C 737.85 483.09, 738.78 483.54, 740.29 483.92 C 741.80 484.31, 742.89 484.34, 744.85 484.31 C 746.82 484.28, 748.01 484.08, 750.14 483.78 C 752.26 483.48, 753.44 483.30, 755.48 482.83 C 757.53 482.35, 758.66 482.16, 760.36 481.40 C 762.07 480.65, 762.92 480.15, 763.99 479.04 C 765.07 477.92, 765.45 477.14, 765.74 475.83 C 766.02 474.51, 765.93 473.70, 765.43 472.46 C 764.93 471.23, 764.38 470.66, 763.24 469.65 C 762.09 468.63, 761.24 468.24, 759.71 467.37 C 758.18 466.50, 757.22 466.09, 755.61 465.28 C 754.00 464.47, 753.08 464.04, 751.67 463.34 C 750.25 462.63, 749.54 462.30, 748.53 461.78 C 747.53 461.25, 747.07 461.11, 746.64 460.71 C 746.21 460.30, 746.11 460.23, 746.37 459.75 C 746.63 459.28, 746.99 459.01, 747.94 458.33 C 748.88 457.65, 749.60 457.15, 751.09 456.35 C 752.58 455.55, 753.59 455.05, 755.37 454.32 C 757.15 453.59, 758.29 453.23, 759.99 452.69 C 761.70 452.16, 762.58 451.90, 763.89 451.65 C 765.21 451.41, 765.70 451.54, 766.55 451.48 C 767.40 451.42, 767.55 451.45, 768.16 451.35 C 768.78 451.25, 769.05 451.42, 769.61 450.98 C 770.18 450.53, 770.87 449.92, 770.98 449.14"
          fill="currentColor"/>
    <path d="M 784.52,468.10 C 784.97 468.76, 785.46 469.02, 786.61 469.26 C 787.75 469.51, 788.56 469.58, 790.22 469.33 C 791.89 469.08, 793.00 468.71, 794.94 468.01 C 796.87 467.31, 797.94 466.76, 799.90 465.83 C 801.85 464.90, 802.93 464.37, 804.70 463.36 C 806.46 462.34, 807.37 461.84, 808.72 460.75 C 810.08 459.66, 810.74 459.14, 811.46 457.90 C 812.18 456.66, 812.45 455.88, 812.32 454.55 C 812.20 453.23, 811.89 452.32, 810.83 451.26 C 809.76 450.21, 808.88 449.66, 806.99 449.26 C 805.09 448.86, 803.82 448.88, 801.35 449.27 C 798.88 449.65, 797.40 450.10, 794.65 451.19 C 791.91 452.29, 790.38 453.20, 787.64 454.75 C 784.89 456.30, 783.31 457.14, 780.92 458.94 C 778.54 460.74, 777.37 461.81, 775.70 463.75 C 774.03 465.69, 773.32 466.71, 772.58 468.66 C 771.85 470.61, 771.72 471.67, 772.04 473.48 C 772.35 475.30, 772.86 476.29, 774.16 477.74 C 775.46 479.20, 776.45 479.83, 778.56 480.76 C 780.66 481.69, 781.97 482.01, 784.69 482.40 C 787.41 482.78, 789.03 482.75, 792.17 482.70 C 795.31 482.66, 797.34 482.54, 800.39 482.16 C 803.44 481.79, 805.10 481.53, 807.42 480.84 C 809.74 480.14, 811.13 479.51, 811.98 478.69 C 812.83 477.86, 812.71 477.24, 811.67 476.71 C 810.64 476.17, 809.16 476.11, 806.80 476.02 C 804.44 475.92, 802.83 476.10, 799.89 476.23 C 796.95 476.36, 795.00 476.66, 792.12 476.67 C 789.24 476.67, 787.81 476.51, 785.49 476.25 C 783.16 475.98, 782.12 475.75, 780.48 475.35 C 778.83 474.95, 778.17 474.75, 777.25 474.24 C 776.34 473.73, 776.02 473.54, 775.89 472.81 C 775.76 472.08, 775.87 471.67, 776.59 470.60 C 777.32 469.52, 777.96 468.82, 779.51 467.45 C 781.07 466.07, 782.18 465.21, 784.36 463.71 C 786.55 462.21, 787.92 461.24, 790.44 459.96 C 792.96 458.68, 794.54 458.15, 796.96 457.30 C 799.38 456.45, 800.62 456.13, 802.54 455.71 C 804.45 455.29, 805.31 455.36, 806.54 455.20 C 807.76 455.04, 808.13 455.01, 808.66 454.90 C 809.18 454.79, 809.23 454.62, 809.14 454.65 C 809.06 454.68, 808.90 454.71, 808.23 455.05 C 807.56 455.38, 807.04 455.69, 805.79 456.31 C 804.55 456.93, 803.70 457.40, 802.03 458.14 C 800.36 458.88, 799.30 459.34, 797.44 460.03 C 795.57 460.71, 794.50 460.99, 792.71 461.58 C 790.92 462.16, 789.87 462.39, 788.48 462.97 C 787.10 463.56, 786.59 463.90, 785.76 464.49 C 784.93 465.09, 784.59 465.22, 784.34 465.94 C 784.09 466.67, 784.06 467.44, 784.52 468.10"
          fill="currentColor"/>
    <path d="M 855.96,460.80 C 856.37 460.11, 856.42 459.55, 856.09 458.68 C 855.77 457.81, 855.37 457.20, 854.34 456.46 C 853.32 455.71, 852.50 455.31, 850.97 454.95 C 849.44 454.59, 848.54 454.56, 846.70 454.65 C 844.86 454.74, 843.85 454.85, 841.76 455.40 C 839.68 455.95, 838.47 456.34, 836.28 457.38 C 834.08 458.42, 832.85 459.15, 830.79 460.60 C 828.73 462.04, 827.65 462.92, 825.98 464.59 C 824.31 466.26, 823.48 467.19, 822.44 468.96 C 821.41 470.73, 821.01 471.70, 820.80 473.44 C 820.58 475.17, 820.71 476.12, 821.39 477.61 C 822.06 479.11, 822.70 479.91, 824.19 480.90 C 825.67 481.89, 826.74 482.27, 828.81 482.56 C 830.87 482.86, 832.11 482.75, 834.51 482.37 C 836.90 482.00, 838.23 481.62, 840.77 480.69 C 843.31 479.77, 844.69 479.13, 847.20 477.75 C 849.71 476.36, 850.98 475.52, 853.33 473.75 C 855.69 471.97, 856.86 470.95, 858.98 468.88 C 861.11 466.80, 862.14 465.64, 863.96 463.37 C 865.79 461.10, 866.61 459.89, 868.11 457.53 C 869.61 455.17, 870.29 453.91, 871.47 451.57 C 872.66 449.23, 873.17 448.03, 874.04 445.84 C 874.91 443.64, 875.25 442.54, 875.83 440.59 C 876.41 438.63, 876.78 437.70, 876.93 436.06 C 877.08 434.42, 877.14 433.48, 876.56 432.38 C 875.99 431.28, 875.22 430.72, 874.05 430.57 C 872.89 430.42, 872.03 430.63, 870.75 431.65 C 869.46 432.66, 868.79 433.58, 867.63 435.65 C 866.47 437.73, 866.04 439.29, 864.94 442.03 C 863.85 444.77, 863.32 446.46, 862.17 449.35 C 861.02 452.24, 860.29 453.73, 859.20 456.49 C 858.11 459.26, 857.53 460.65, 856.73 463.18 C 855.93 465.70, 855.60 466.94, 855.19 469.12 C 854.78 471.31, 854.70 472.31, 854.67 474.11 C 854.64 475.92, 854.73 476.72, 855.05 478.14 C 855.37 479.55, 855.68 480.20, 856.27 481.19 C 856.85 482.17, 857.27 482.58, 857.96 483.06 C 858.65 483.53, 859.12 483.57, 859.70 483.57 C 860.29 483.56, 860.60 483.44, 860.89 483.03 C 861.19 482.62, 861.15 481.97, 861.18 481.50 C 861.20 481.04, 861.07 481.02, 861.01 480.71 C 860.95 480.41, 861.06 480.35, 860.89 480.00 C 860.71 479.65, 860.44 479.53, 860.15 478.98 C 859.87 478.43, 859.60 478.18, 859.45 477.26 C 859.30 476.33, 859.28 475.77, 859.41 474.36 C 859.55 472.95, 859.66 472.10, 860.14 470.21 C 860.63 468.32, 861.01 467.23, 861.84 464.90 C 862.68 462.58, 863.21 461.22, 864.32 458.57 C 865.43 455.92, 866.06 454.41, 867.40 451.65 C 868.73 448.90, 869.69 447.37, 871.01 444.79 C 872.34 442.20, 873.18 440.83, 874.02 438.73 C 874.87 436.64, 875.14 435.65, 875.25 434.33 C 875.36 433.01, 875.03 432.52, 874.57 432.14 C 874.11 431.75, 873.49 431.84, 872.94 432.43 C 872.39 433.02, 872.23 433.74, 871.80 435.07 C 871.38 436.39, 871.35 437.31, 870.80 439.06 C 870.25 440.81, 869.90 441.80, 869.06 443.81 C 868.22 445.81, 867.71 446.91, 866.59 449.06 C 865.47 451.21, 864.85 452.39, 863.46 454.55 C 862.07 456.71, 861.30 457.80, 859.62 459.85 C 857.94 461.91, 857.02 462.99, 855.08 464.84 C 853.14 466.69, 852.06 467.58, 849.92 469.12 C 847.79 470.66, 846.64 471.37, 844.40 472.53 C 842.16 473.68, 840.92 474.17, 838.73 474.91 C 836.54 475.65, 835.37 475.89, 833.47 476.24 C 831.57 476.59, 830.64 476.62, 829.21 476.67 C 827.79 476.73, 827.20 476.68, 826.36 476.51 C 825.52 476.35, 825.26 476.28, 825.00 475.86 C 824.74 475.43, 824.74 475.16, 825.08 474.37 C 825.42 473.59, 825.74 473.03, 826.70 471.92 C 827.66 470.82, 828.39 470.09, 829.90 468.84 C 831.40 467.60, 832.41 466.84, 834.22 465.68 C 836.03 464.51, 837.11 463.89, 838.95 463.02 C 840.78 462.15, 841.77 461.80, 843.39 461.33 C 845.02 460.85, 845.83 460.74, 847.07 460.64 C 848.31 460.54, 848.77 460.63, 849.59 460.82 C 850.40 461.01, 850.56 461.34, 851.13 461.59 C 851.70 461.84, 851.85 461.97, 852.43 462.08 C 853.01 462.18, 853.33 462.37, 854.03 462.11 C 854.74 461.86, 855.55 461.49, 855.96 460.80"
          fill="currentColor"/>
    <path d="M 960.04,458.04 C 959.28 458.16, 959.03 458.52, 958.31 459.27 C 957.58 460.02, 957.20 460.48, 956.42 461.79 C 955.64 463.10, 955.26 464.09, 954.41 465.82 C 953.57 467.55, 953.14 468.59, 952.19 470.43 C 951.25 472.27, 950.64 473.30, 949.69 475.01 C 948.74 476.73, 948.10 477.59, 947.44 479.00 C 946.78 480.40, 946.43 481.07, 946.40 482.03 C 946.36 483.00, 946.66 483.46, 947.28 483.82 C 947.90 484.18, 948.60 484.27, 949.51 483.82 C 950.41 483.38, 950.94 482.84, 951.79 481.61 C 952.64 480.37, 952.85 479.36, 953.74 477.63 C 954.63 475.90, 955.08 474.82, 956.25 472.95 C 957.42 471.08, 958.18 470.06, 959.60 468.29 C 961.02 466.53, 961.83 465.63, 963.36 464.13 C 964.88 462.62, 965.76 461.93, 967.25 460.77 C 968.74 459.60, 969.46 459.25, 970.80 458.31 C 972.14 457.36, 973.46 456.94, 973.95 456.05 C 974.44 455.16, 974.28 454.26, 973.25 453.84 C 972.23 453.43, 970.65 453.47, 968.82 453.96 C 967.00 454.46, 965.99 455.13, 964.12 456.34 C 962.25 457.54, 961.29 458.37, 959.48 459.99 C 957.67 461.60, 956.77 462.55, 955.08 464.42 C 953.39 466.29, 952.51 467.36, 951.02 469.33 C 949.53 471.30, 948.75 472.39, 947.65 474.28 C 946.55 476.17, 945.97 477.15, 945.52 478.76 C 945.08 480.38, 945.09 481.22, 945.42 482.35 C 945.75 483.48, 946.35 484.02, 947.19 484.41 C 948.04 484.80, 948.68 484.79, 949.66 484.30 C 950.64 483.81, 951.07 483.20, 952.09 481.96 C 953.12 480.72, 953.65 479.80, 954.78 478.12 C 955.90 476.44, 956.58 475.41, 957.72 473.55 C 958.86 471.70, 959.55 470.69, 960.49 468.86 C 961.43 467.02, 961.93 465.97, 962.41 464.37 C 962.88 462.78, 962.91 462.04, 962.86 460.90 C 962.81 459.75, 962.71 459.24, 962.15 458.67 C 961.59 458.10, 960.81 457.92, 960.04 458.04"
          fill="currentColor"/>
    <path d="M 991.03,468.86 C 991.54 469.48, 991.99 469.66, 993.11 469.85 C 994.23 470.03, 995.03 470.05, 996.64 469.77 C 998.26 469.49, 999.29 469.12, 1001.17 468.44 C 1003.05 467.75, 1004.13 467.23, 1006.04 466.35 C 1007.96 465.46, 1009.02 464.97, 1010.74 464.00 C 1012.46 463.04, 1013.36 462.56, 1014.66 461.52 C 1015.97 460.47, 1016.59 459.98, 1017.27 458.78 C 1017.95 457.58, 1018.21 456.82, 1018.06 455.54 C 1017.90 454.26, 1017.56 453.36, 1016.49 452.37 C 1015.41 451.39, 1014.54 450.92, 1012.67 450.59 C 1010.81 450.27, 1009.59 450.32, 1007.16 450.73 C 1004.72 451.15, 1003.22 451.57, 1000.48 452.66 C 997.74 453.76, 996.21 454.66, 993.45 456.20 C 990.70 457.74, 989.11 458.57, 986.70 460.36 C 984.28 462.16, 983.10 463.20, 981.39 465.16 C 979.68 467.13, 978.95 468.17, 978.16 470.17 C 977.36 472.16, 977.17 473.24, 977.41 475.15 C 977.65 477.05, 978.09 478.10, 979.36 479.69 C 980.64 481.27, 981.65 482.01, 983.79 483.07 C 985.92 484.13, 987.26 484.53, 990.05 484.99 C 992.84 485.46, 994.49 485.40, 997.74 485.40 C 1000.98 485.40, 1003.11 485.30, 1006.26 484.99 C 1009.41 484.68, 1011.10 484.49, 1013.49 483.84 C 1015.88 483.19, 1017.32 482.56, 1018.21 481.74 C 1019.10 480.93, 1018.99 480.30, 1017.94 479.76 C 1016.88 479.22, 1015.36 479.14, 1012.94 479.03 C 1010.53 478.92, 1008.91 479.11, 1005.88 479.22 C 1002.84 479.32, 1000.76 479.60, 997.79 479.54 C 994.81 479.49, 993.37 479.28, 991.01 478.94 C 988.64 478.59, 987.62 478.31, 985.97 477.80 C 984.31 477.29, 983.62 477.01, 982.71 476.38 C 981.80 475.76, 981.51 475.50, 981.42 474.66 C 981.33 473.82, 981.49 473.34, 982.25 472.18 C 983.00 471.02, 983.63 470.28, 985.20 468.87 C 986.77 467.45, 987.88 466.61, 990.08 465.12 C 992.28 463.63, 993.68 462.68, 996.22 461.41 C 998.76 460.15, 1000.33 459.64, 1002.77 458.80 C 1005.22 457.96, 1006.49 457.65, 1008.42 457.21 C 1010.36 456.77, 1011.22 456.81, 1012.45 456.59 C 1013.67 456.38, 1014.05 456.33, 1014.57 456.15 C 1015.08 455.97, 1015.11 455.74, 1015.02 455.69 C 1014.92 455.65, 1014.74 455.66, 1014.10 455.94 C 1013.46 456.22, 1013.00 456.53, 1011.81 457.09 C 1010.62 457.66, 1009.79 458.07, 1008.16 458.76 C 1006.53 459.45, 1005.50 459.87, 1003.66 460.53 C 1001.82 461.18, 1000.73 461.45, 998.96 462.03 C 997.18 462.61, 996.18 462.82, 994.77 463.43 C 993.37 464.03, 992.76 464.39, 991.92 465.06 C 991.08 465.73, 990.76 466.01, 990.58 466.77 C 990.41 467.53, 990.52 468.25, 991.03 468.86"
          fill="currentColor"/>
    <path d="M 1059.51,453.90 C 1058.88 453.27, 1058.14 453.07, 1056.69 452.98 C 1055.23 452.89, 1054.22 452.92, 1052.23 453.44 C 1050.25 453.96, 1048.97 454.46, 1046.75 455.59 C 1044.53 456.72, 1043.30 457.57, 1041.12 459.10 C 1038.95 460.64, 1037.78 461.52, 1035.89 463.27 C 1033.99 465.01, 1033.02 465.99, 1031.66 467.82 C 1030.31 469.65, 1029.71 470.62, 1029.12 472.42 C 1028.53 474.23, 1028.39 475.18, 1028.71 476.84 C 1029.03 478.50, 1029.47 479.42, 1030.72 480.73 C 1031.97 482.04, 1032.92 482.65, 1034.96 483.39 C 1037.00 484.13, 1038.32 484.28, 1040.92 484.43 C 1043.52 484.59, 1045.06 484.46, 1047.95 484.14 C 1050.85 483.82, 1052.43 483.46, 1055.39 482.84 C 1058.35 482.22, 1059.95 481.86, 1062.75 481.05 C 1065.55 480.25, 1066.98 479.80, 1069.40 478.83 C 1071.82 477.86, 1073.14 477.23, 1074.86 476.20 C 1076.58 475.16, 1077.11 474.57, 1078.01 473.66 C 1078.90 472.76, 1079.22 472.31, 1079.34 471.66 C 1079.45 471.01, 1079.17 470.61, 1078.57 470.39 C 1077.97 470.17, 1077.49 470.34, 1076.31 470.56 C 1075.14 470.78, 1074.45 470.90, 1072.67 471.50 C 1070.89 472.11, 1069.71 472.76, 1067.42 473.56 C 1065.12 474.37, 1063.83 474.82, 1061.21 475.53 C 1058.59 476.25, 1057.08 476.66, 1054.31 477.13 C 1051.54 477.59, 1050.02 477.68, 1047.38 477.87 C 1044.75 478.05, 1043.34 478.07, 1041.14 478.06 C 1038.94 478.04, 1037.91 477.96, 1036.39 477.79 C 1034.87 477.62, 1034.31 477.53, 1033.53 477.22 C 1032.76 476.91, 1032.56 476.82, 1032.53 476.24 C 1032.50 475.66, 1032.71 475.32, 1033.38 474.34 C 1034.04 473.35, 1034.58 472.63, 1035.85 471.30 C 1037.12 469.98, 1037.99 469.13, 1039.73 467.72 C 1041.48 466.32, 1042.60 465.55, 1044.60 464.29 C 1046.59 463.04, 1047.77 462.42, 1049.71 461.45 C 1051.65 460.48, 1052.68 460.15, 1054.29 459.44 C 1055.90 458.72, 1056.64 458.54, 1057.76 457.89 C 1058.88 457.23, 1059.53 456.96, 1059.88 456.16 C 1060.23 455.37, 1060.15 454.54, 1059.51 453.90"
          fill="currentColor"/>
    <path d="M 1087.53,469.02 C 1088.05 469.63, 1088.56 469.78, 1089.65 469.93 C 1090.75 470.09, 1091.46 470.07, 1093.00 469.78 C 1094.54 469.49, 1095.52 469.17, 1097.34 468.49 C 1099.16 467.81, 1100.22 467.30, 1102.10 466.38 C 1103.98 465.47, 1105.00 464.93, 1106.73 463.93 C 1108.46 462.93, 1109.36 462.43, 1110.73 461.37 C 1112.11 460.30, 1112.80 459.81, 1113.60 458.61 C 1114.40 457.41, 1114.73 456.68, 1114.72 455.37 C 1114.72 454.07, 1114.51 453.16, 1113.58 452.07 C 1112.66 450.97, 1111.86 450.38, 1110.10 449.90 C 1108.34 449.43, 1107.16 449.40, 1104.80 449.69 C 1102.44 449.98, 1100.99 450.37, 1098.30 451.36 C 1095.61 452.36, 1094.06 453.19, 1091.33 454.67 C 1088.60 456.16, 1087.03 456.99, 1084.64 458.78 C 1082.24 460.56, 1081.06 461.62, 1079.38 463.61 C 1077.70 465.59, 1076.98 466.66, 1076.21 468.69 C 1075.45 470.72, 1075.30 471.82, 1075.57 473.76 C 1075.83 475.70, 1076.28 476.76, 1077.55 478.37 C 1078.82 479.98, 1079.82 480.73, 1081.90 481.82 C 1083.98 482.92, 1085.29 483.32, 1087.96 483.83 C 1090.63 484.35, 1092.23 484.46, 1095.24 484.42 C 1098.25 484.38, 1099.92 484.08, 1103.02 483.64 C 1106.13 483.20, 1107.78 482.92, 1110.76 482.23 C 1113.74 481.54, 1115.49 481.15, 1117.94 480.19 C 1120.39 479.22, 1121.47 478.49, 1123.01 477.42 C 1124.55 476.35, 1125.26 475.66, 1125.64 474.82 C 1126.01 473.99, 1125.73 473.49, 1124.88 473.25 C 1124.03 473.00, 1123.13 473.27, 1121.39 473.58 C 1119.64 473.90, 1118.55 474.18, 1116.17 474.81 C 1113.78 475.45, 1112.25 476.11, 1109.48 476.76 C 1106.71 477.42, 1105.16 477.77, 1102.32 478.09 C 1099.47 478.41, 1097.91 478.41, 1095.25 478.35 C 1092.60 478.30, 1091.24 478.16, 1089.03 477.82 C 1086.82 477.47, 1085.82 477.17, 1084.22 476.62 C 1082.62 476.07, 1081.94 475.77, 1081.03 475.08 C 1080.12 474.39, 1079.82 474.08, 1079.69 473.18 C 1079.56 472.28, 1079.67 471.77, 1080.37 470.59 C 1081.08 469.42, 1081.69 468.68, 1083.23 467.28 C 1084.77 465.89, 1085.89 465.08, 1088.07 463.63 C 1090.24 462.19, 1091.63 461.29, 1094.12 460.07 C 1096.60 458.86, 1098.15 458.36, 1100.49 457.57 C 1102.84 456.79, 1104.04 456.55, 1105.85 456.16 C 1107.66 455.77, 1108.44 455.82, 1109.53 455.63 C 1110.62 455.45, 1110.92 455.36, 1111.32 455.21 C 1111.71 455.07, 1111.70 454.87, 1111.50 454.91 C 1111.30 454.96, 1111.08 455.04, 1110.34 455.42 C 1109.59 455.80, 1109.04 456.16, 1107.77 456.82 C 1106.51 457.47, 1105.63 457.93, 1103.99 458.69 C 1102.35 459.45, 1101.34 459.91, 1099.56 460.61 C 1097.77 461.31, 1096.74 461.60, 1095.05 462.20 C 1093.36 462.79, 1092.43 463.00, 1091.10 463.59 C 1089.77 464.19, 1089.21 464.50, 1088.40 465.16 C 1087.59 465.81, 1087.21 466.09, 1087.04 466.86 C 1086.86 467.63, 1087.00 468.40, 1087.53 469.02"
          fill="currentColor"/>
    <path d="M 1136.96,456.44 C 1136.20 456.48, 1136.00 456.73, 1135.19 457.37 C 1134.39 458.00, 1133.88 458.41, 1132.95 459.62 C 1132.02 460.83, 1131.49 461.79, 1130.54 463.41 C 1129.60 465.03, 1129.09 466.07, 1128.21 467.71 C 1127.34 469.35, 1126.76 470.20, 1126.19 471.61 C 1125.62 473.03, 1125.29 473.70, 1125.38 474.77 C 1125.46 475.85, 1125.83 476.44, 1126.60 476.98 C 1127.38 477.52, 1128.11 477.74, 1129.27 477.49 C 1130.43 477.24, 1131.05 476.82, 1132.39 475.73 C 1133.72 474.64, 1134.32 473.68, 1135.93 472.06 C 1137.54 470.43, 1138.48 469.35, 1140.46 467.60 C 1142.44 465.85, 1143.64 464.85, 1145.82 463.30 C 1148.00 461.76, 1149.27 461.00, 1151.35 459.88 C 1153.43 458.75, 1154.57 458.31, 1156.23 457.68 C 1157.88 457.06, 1158.63 456.89, 1159.63 456.75 C 1160.62 456.60, 1160.90 456.63, 1161.22 456.95 C 1161.53 457.28, 1161.40 457.51, 1161.20 458.37 C 1161.01 459.23, 1160.72 459.85, 1160.23 461.26 C 1159.74 462.68, 1159.40 463.67, 1158.76 465.45 C 1158.12 467.23, 1157.71 468.32, 1157.03 470.17 C 1156.34 472.01, 1155.86 473.04, 1155.34 474.68 C 1154.82 476.33, 1154.56 477.16, 1154.43 478.40 C 1154.29 479.64, 1154.45 480.14, 1154.66 480.87 C 1154.87 481.61, 1155.08 481.83, 1155.47 482.08 C 1155.86 482.33, 1156.22 482.24, 1156.62 482.12 C 1157.02 482.00, 1157.02 481.92, 1157.48 481.49 C 1157.95 481.06, 1158.32 480.90, 1158.94 479.97 C 1159.56 479.04, 1159.83 478.32, 1160.59 476.83 C 1161.36 475.35, 1161.89 474.41, 1162.75 472.57 C 1163.61 470.73, 1164.21 469.63, 1164.91 467.62 C 1165.61 465.60, 1166.05 464.45, 1166.24 462.48 C 1166.44 460.52, 1166.42 459.43, 1165.90 457.78 C 1165.39 456.13, 1164.88 455.30, 1163.68 454.24 C 1162.47 453.18, 1161.63 452.80, 1159.86 452.50 C 1158.09 452.20, 1157.05 452.29, 1154.85 452.74 C 1152.65 453.19, 1151.33 453.65, 1148.85 454.75 C 1146.38 455.85, 1144.96 456.66, 1142.45 458.23 C 1139.94 459.79, 1138.59 460.81, 1136.31 462.58 C 1134.03 464.35, 1132.84 465.36, 1131.05 467.07 C 1129.26 468.77, 1128.36 469.64, 1127.35 471.10 C 1126.34 472.57, 1126.09 473.33, 1126.00 474.39 C 1125.91 475.45, 1126.35 475.98, 1126.91 476.41 C 1127.48 476.84, 1128.00 476.90, 1128.82 476.53 C 1129.64 476.16, 1130.04 475.65, 1131.00 474.57 C 1131.96 473.48, 1132.52 472.62, 1133.63 471.12 C 1134.73 469.62, 1135.50 468.70, 1136.53 467.06 C 1137.57 465.42, 1138.19 464.45, 1138.80 462.92 C 1139.42 461.39, 1139.58 460.57, 1139.61 459.42 C 1139.64 458.26, 1139.49 457.73, 1138.96 457.13 C 1138.43 456.54, 1137.71 456.39, 1136.96 456.44"
          fill="currentColor"/>
    <path d="M 1198.98,427.24 C 1198.24 427.34, 1198.05 427.60, 1197.25 428.40 C 1196.45 429.20, 1195.98 429.68, 1194.99 431.23 C 1194.00 432.78, 1193.45 433.89, 1192.29 436.16 C 1191.13 438.42, 1190.55 439.89, 1189.18 442.55 C 1187.82 445.22, 1186.99 446.75, 1185.47 449.46 C 1183.95 452.18, 1183.00 453.55, 1181.59 456.12 C 1180.18 458.70, 1179.48 460.02, 1178.41 462.34 C 1177.33 464.65, 1176.90 465.78, 1176.22 467.70 C 1175.54 469.62, 1175.23 470.43, 1175.01 471.94 C 1174.79 473.45, 1174.80 474.23, 1175.12 475.24 C 1175.43 476.25, 1175.95 476.53, 1176.57 476.97 C 1177.20 477.42, 1177.72 477.48, 1178.23 477.45 C 1178.74 477.43, 1179.19 477.32, 1179.12 476.83 C 1179.05 476.35, 1178.16 475.38, 1177.89 475.04 C 1177.62 474.69, 1177.69 475.05, 1177.78 475.11 C 1177.87 475.16, 1178.15 475.32, 1178.33 475.31 C 1178.52 475.29, 1178.49 475.47, 1178.71 475.02 C 1178.93 474.57, 1179.02 474.14, 1179.45 473.05 C 1179.87 471.96, 1180.10 471.22, 1180.86 469.55 C 1181.62 467.88, 1182.12 466.85, 1183.24 464.70 C 1184.35 462.55, 1185.02 461.29, 1186.42 458.80 C 1187.81 456.30, 1188.62 454.88, 1190.22 452.23 C 1191.82 449.58, 1192.81 448.12, 1194.43 445.54 C 1196.05 442.97, 1197.03 441.66, 1198.30 439.36 C 1199.58 437.06, 1200.14 435.88, 1200.79 434.04 C 1201.44 432.20, 1201.53 431.40, 1201.57 430.17 C 1201.60 428.93, 1201.47 428.45, 1200.95 427.87 C 1200.43 427.28, 1199.72 427.13, 1198.98 427.24"
          fill="currentColor"/>
    <path d="M 1173.37,457.48 C 1173.80 458.13, 1174.19 458.30, 1175.25 458.63 C 1176.31 458.96, 1177.02 459.08, 1178.66 459.13 C 1180.30 459.17, 1181.37 459.01, 1183.46 458.85 C 1185.54 458.69, 1186.79 458.58, 1189.10 458.34 C 1191.40 458.10, 1192.85 458.02, 1194.98 457.63 C 1197.10 457.24, 1198.18 456.96, 1199.71 456.38 C 1201.25 455.81, 1202.10 455.44, 1202.65 454.75 C 1203.20 454.05, 1203.13 453.47, 1202.46 452.90 C 1201.78 452.33, 1200.88 452.17, 1199.27 451.90 C 1197.67 451.63, 1196.56 451.56, 1194.43 451.56 C 1192.29 451.55, 1190.89 451.76, 1188.60 451.87 C 1186.31 451.98, 1185.08 451.97, 1182.98 452.11 C 1180.87 452.25, 1179.73 452.23, 1178.07 452.57 C 1176.42 452.91, 1175.69 453.24, 1174.70 453.80 C 1173.70 454.37, 1173.37 454.66, 1173.11 455.39 C 1172.84 456.13, 1172.95 456.83, 1173.37 457.48"
          fill="currentColor"/>
    <path d="M 1233.09,428.14 C 1232.37 428.08, 1232.09 428.24, 1231.17 428.88 C 1230.26 429.53, 1229.70 429.88, 1228.50 431.36 C 1227.30 432.84, 1226.52 433.93, 1225.17 436.27 C 1223.82 438.60, 1223.26 440.25, 1221.75 443.04 C 1220.25 445.83, 1219.29 447.38, 1217.64 450.23 C 1216.00 453.07, 1215.00 454.56, 1213.53 457.26 C 1212.06 459.97, 1211.31 461.31, 1210.28 463.75 C 1209.25 466.18, 1208.85 467.36, 1208.37 469.46 C 1207.90 471.55, 1207.77 472.51, 1207.90 474.23 C 1208.04 475.94, 1208.28 476.73, 1209.05 478.03 C 1209.82 479.32, 1210.43 479.91, 1211.76 480.68 C 1213.10 481.45, 1213.97 481.72, 1215.72 481.86 C 1217.47 482.00, 1218.50 481.86, 1220.52 481.39 C 1222.53 480.92, 1223.67 480.43, 1225.80 479.49 C 1227.92 478.56, 1229.06 477.92, 1231.15 476.72 C 1233.23 475.52, 1234.31 474.80, 1236.22 473.49 C 1238.12 472.19, 1239.11 471.47, 1240.67 470.18 C 1242.22 468.88, 1243.00 468.17, 1243.98 467.02 C 1244.97 465.87, 1245.21 465.33, 1245.60 464.43 C 1245.99 463.53, 1246.10 463.10, 1245.95 462.53 C 1245.80 461.96, 1245.39 461.68, 1244.84 461.57 C 1244.28 461.47, 1244.01 461.69, 1243.18 462.02 C 1242.35 462.35, 1241.87 462.48, 1240.68 463.22 C 1239.49 463.97, 1238.77 464.65, 1237.24 465.74 C 1235.71 466.82, 1234.83 467.50, 1233.03 468.63 C 1231.22 469.76, 1230.17 470.37, 1228.22 471.38 C 1226.27 472.38, 1225.16 472.88, 1223.28 473.68 C 1221.40 474.48, 1220.38 474.84, 1218.82 475.37 C 1217.27 475.90, 1216.58 476.08, 1215.50 476.34 C 1214.43 476.59, 1214.07 476.68, 1213.46 476.63 C 1212.84 476.59, 1212.67 476.58, 1212.42 476.09 C 1212.18 475.61, 1212.11 475.28, 1212.23 474.22 C 1212.36 473.15, 1212.48 472.43, 1213.06 470.77 C 1213.64 469.10, 1214.09 468.09, 1215.12 465.90 C 1216.15 463.70, 1216.78 462.39, 1218.19 459.80 C 1219.60 457.21, 1220.46 455.69, 1222.16 452.94 C 1223.87 450.19, 1224.94 448.68, 1226.73 446.07 C 1228.52 443.46, 1229.65 442.14, 1231.10 439.88 C 1232.55 437.61, 1233.20 436.48, 1233.98 434.75 C 1234.76 433.02, 1234.84 432.36, 1235.01 431.24 C 1235.17 430.13, 1235.19 429.81, 1234.80 429.19 C 1234.42 428.56, 1233.82 428.20, 1233.09 428.14"
          fill="currentColor"/>
    <path d="M 1256.18,455.33 C 1255.52 455.31, 1255.31 455.32, 1254.72 455.67 C 1254.13 456.02, 1253.73 456.23, 1253.23 457.09 C 1252.72 457.96, 1252.49 458.63, 1252.20 459.99 C 1251.91 461.36, 1251.82 462.29, 1251.77 463.90 C 1251.72 465.51, 1251.69 466.43, 1251.94 468.04 C 1252.19 469.65, 1252.35 470.53, 1253.00 471.96 C 1253.65 473.38, 1254.12 474.10, 1255.19 475.18 C 1256.26 476.25, 1256.94 476.74, 1258.37 477.33 C 1259.80 477.93, 1260.67 478.09, 1262.33 478.15 C 1263.99 478.21, 1264.90 478.07, 1266.69 477.63 C 1268.47 477.20, 1269.42 476.82, 1271.28 475.96 C 1273.13 475.10, 1274.16 474.50, 1275.94 473.34 C 1277.72 472.18, 1278.63 471.47, 1280.17 470.16 C 1281.72 468.85, 1282.47 468.07, 1283.66 466.80 C 1284.85 465.53, 1285.59 465.00, 1286.12 463.82 C 1286.65 462.63, 1286.74 461.75, 1286.31 460.86 C 1285.87 459.96, 1285.08 459.35, 1283.96 459.34 C 1282.84 459.33, 1282.03 459.70, 1280.71 460.82 C 1279.39 461.95, 1278.71 462.88, 1277.38 464.96 C 1276.05 467.04, 1275.45 468.55, 1274.05 471.23 C 1272.65 473.91, 1271.93 475.49, 1270.38 478.36 C 1268.83 481.24, 1267.97 482.72, 1266.29 485.60 C 1264.61 488.47, 1263.72 489.94, 1261.99 492.74 C 1260.26 495.53, 1259.40 496.98, 1257.66 499.57 C 1255.91 502.16, 1254.94 503.40, 1253.27 505.69 C 1251.59 507.99, 1250.77 509.11, 1249.30 511.05 C 1247.83 512.98, 1247.13 513.87, 1245.90 515.35 C 1244.68 516.83, 1244.04 517.40, 1243.19 518.45 C 1242.35 519.49, 1242.15 519.88, 1241.69 520.57 C 1241.23 521.25, 1240.94 521.34, 1240.90 521.87 C 1240.85 522.41, 1240.93 522.94, 1241.46 523.24 C 1241.99 523.54, 1242.56 523.65, 1243.55 523.37 C 1244.54 523.09, 1245.20 522.78, 1246.43 521.84 C 1247.66 520.91, 1248.30 520.21, 1249.71 518.70 C 1251.12 517.19, 1251.90 516.28, 1253.47 514.29 C 1255.05 512.31, 1255.93 511.17, 1257.59 508.77 C 1259.26 506.36, 1260.11 504.97, 1261.80 502.26 C 1263.50 499.56, 1264.34 498.08, 1266.08 495.25 C 1267.81 492.42, 1268.70 490.96, 1270.47 488.12 C 1272.23 485.28, 1273.14 483.79, 1274.92 481.06 C 1276.69 478.32, 1277.64 476.87, 1279.34 474.44 C 1281.04 472.00, 1282.10 470.87, 1283.42 468.89 C 1284.73 466.91, 1285.36 466.04, 1285.92 464.54 C 1286.48 463.03, 1286.52 462.28, 1286.22 461.35 C 1285.92 460.42, 1285.22 460.05, 1284.41 459.90 C 1283.60 459.74, 1283.10 459.98, 1282.17 460.57 C 1281.24 461.16, 1280.91 461.82, 1279.77 462.83 C 1278.64 463.83, 1277.92 464.52, 1276.50 465.59 C 1275.09 466.67, 1274.26 467.22, 1272.68 468.18 C 1271.11 469.15, 1270.14 469.64, 1268.61 470.40 C 1267.09 471.16, 1266.34 471.54, 1265.06 471.99 C 1263.78 472.43, 1263.21 472.52, 1262.21 472.63 C 1261.22 472.75, 1260.78 472.75, 1260.08 472.58 C 1259.37 472.41, 1259.13 472.27, 1258.69 471.78 C 1258.25 471.29, 1258.05 470.95, 1257.86 470.13 C 1257.66 469.32, 1257.64 468.80, 1257.73 467.71 C 1257.82 466.62, 1258.03 465.92, 1258.31 464.68 C 1258.60 463.44, 1258.90 462.69, 1259.16 461.53 C 1259.43 460.36, 1259.66 459.79, 1259.64 458.85 C 1259.63 457.92, 1259.44 457.46, 1259.11 456.85 C 1258.78 456.23, 1258.58 456.07, 1258.00 455.77 C 1257.41 455.46, 1256.83 455.35, 1256.18 455.33"
          fill="currentColor"/>
</svg>
